<svg width="50" height="60" viewBox="0 0 50 60" fill="none" xmlns="http://www.w3.org/2000/svg">
<path d="M22 59.82C22.3 59.82 22.54 59.88 22.84 59.88H27.16C39.34 59.88 49.18 50.04 49.18 37.86V33.54C49.18 21.36 39.34 11.52 27.16 11.52H22.84C22.54 11.52 22.3 11.58 22 11.58V59.82Z" fill="#FFAE2B"/>
<path d="M28.96 52.08H24.82C11.62 52.08 0.880005 41.34 0.880005 28.14V24C0.880005 10.74 11.62 0 24.82 0H28.96C29.2 0 29.38 0 29.62 0L32.44 0.12V51.9L29.62 52.02C29.44 52.08 29.2 52.08 28.96 52.08ZM24.82 5.4C14.56 5.4 6.22001 13.74 6.22001 24V28.14C6.22001 38.4 14.56 46.74 24.82 46.74H27.1V5.4H24.82Z" fill="#54493E"/>
</svg>
