<svg width="45" height="60" viewBox="0 0 45 60" fill="none" xmlns="http://www.w3.org/2000/svg">
<path d="M22.82 60.06L44.72 41.34L36.38 27.48H9.25999L0.859985 41.34L22.82 60.06Z" fill="#54493E"/>
<path d="M22.4 42.78C10.58 42.78 1.03998 33.18 1.03998 21.42C1.03998 9.66 10.64 0 22.4 0C34.16 0 43.76 9.6 43.76 21.36C43.76 33.12 34.22 42.78 22.4 42.78ZM22.4 4.98C13.34 4.98 5.95998 12.36 5.95998 21.42C5.95998 30.48 13.34 37.8 22.4 37.8C31.46 37.8 38.84 30.42 38.84 21.36C38.84 12.3 31.46 4.98 22.4 4.98Z" fill="#FFAE2B"/>
</svg>
